<svg width="742" height="127" viewBox="0 0 742 127" fill="none" xmlns="http://www.w3.org/2000/svg">
<path d="M734.463 78.6274H724.849L724.863 15.9783L707.037 63.1575C703.152 72.4987 690.477 71.0654 687.782 63.1575L669.765 18.9649L669.814 35.8681V61.0111V61.5335V62.056V62.5856V62.7339V71.0654C669.758 76.029 667.168 78.4155 662.277 78.6274H654.162V65.5369V8.88233L654.169 8.69875L654.176 8.5293L654.19 8.34572L654.205 8.1692L654.233 7.99269L654.261 7.82323L654.296 7.63965L654.331 7.4702L654.373 7.29368L654.423 7.11717H654.43L654.479 6.94771L654.535 6.77826L654.599 6.6088L654.669 6.43228L654.739 6.26989L654.81 6.10043L654.894 5.93098L654.979 5.76858L655.063 5.60619L655.155 5.44379L655.246 5.28846H655.253L655.345 5.12607L655.45 4.97073L655.556 4.82246L655.668 4.66712L655.781 4.51885L655.894 4.37058L656.013 4.22936L656.14 4.08815L656.267 3.94694L656.393 3.80572L656.52 3.67157L656.654 3.54448L656.794 3.41033L656.935 3.28324L657.076 3.16321L657.217 3.04318L657.365 2.93021L657.512 2.81723L657.667 2.70426L657.822 2.59836L657.977 2.49245L658.132 2.3936L658.293 2.30181L658.448 2.21002L658.61 2.11823L658.772 2.0335L658.941 1.95584L659.11 1.88523L659.279 1.80756L659.441 1.74402H659.448L659.617 1.68047L659.785 1.62399L659.961 1.5675L660.13 1.51808L660.306 1.47571L660.482 1.43335L660.651 1.40511H660.658L660.827 1.3698L661.01 1.34862L661.186 1.32744L661.362 1.32038L661.538 1.30626H661.714H663.572H679.59L697.979 50.6037L715.77 5.50028C717.164 2.70426 719.402 1.29214 722.506 1.30626H734.505H742V71.0654C741.979 76.2409 739.896 78.6132 734.463 78.6274Z" fill="white"/>
<path d="M603.28 79.9688C592.231 79.9688 583.244 76.3609 576.291 69.1661C569.337 61.9501 565.875 52.5594 565.875 40.987C565.875 28.7651 569.394 18.8802 576.452 11.3394C583.518 3.79157 592.857 0 604.505 0C615.512 0 624.407 3.62917 631.199 10.8381C637.983 18.0752 641.382 27.6071 641.382 39.4196C641.382 51.5709 637.856 61.3782 630.812 68.813C623.788 76.2479 614.597 79.9688 603.28 79.9688ZM604.026 14.9968C597.939 14.9968 593.097 17.2845 589.521 21.8809C585.939 26.4633 584.145 32.5213 584.145 40.0691C584.145 47.7229 585.939 53.7809 589.521 58.2503C593.097 62.7056 597.791 64.9297 603.59 64.9297C609.586 64.9297 614.322 62.7621 617.841 58.4339C621.346 54.0916 623.105 48.09 623.105 40.401C623.105 32.373 621.402 26.1314 618.01 21.6832C614.597 17.228 609.938 14.9968 604.026 14.9968Z" fill="white"/>
<path d="M554.431 77.4694C549.336 79.1992 543.91 79.9688 536.576 79.9688C524.76 79.9688 515.456 76.4879 508.693 69.512C501.901 62.5361 498.53 53.2443 498.53 41.6296C498.53 29.2664 502.324 19.2332 509.939 11.5371C517.553 3.84805 527.441 0 539.581 0C544.142 0 547.302 0.289486 550.609 0.868459C555.163 1.65925 558.506 3.20553 558.604 8.72695V13.2528C558.147 17.9058 554.283 17.461 552.172 16.7973C548.674 15.7099 544.986 14.9968 540.982 14.9968C533.747 14.9968 527.899 17.2845 523.458 21.8456C519.017 26.4068 516.8 32.5919 516.8 40.401C516.8 47.8712 518.891 53.8303 523.092 58.2715C527.272 62.7056 532.924 64.9297 540.025 64.9297C544.824 64.9297 547.949 63.7011 552.369 62.7126C554.973 62.1266 558.611 63.3198 558.604 66.1159V70.1898C558.464 74.7298 557.084 76.5727 554.431 77.4694Z" fill="white"/>
<path d="M452.462 79.9688C441.42 79.9688 432.433 76.3609 425.479 69.1661C418.526 61.9501 415.057 52.5594 415.057 40.987C415.057 28.7651 418.582 18.8802 425.641 11.3394C432.707 3.79157 442.046 0 453.694 0C464.701 0 473.596 3.62917 480.381 10.8381C487.172 18.0752 490.564 27.6071 490.564 39.4196C490.564 51.5709 487.045 61.3782 480.001 68.813C472.977 76.2479 463.786 79.9688 452.462 79.9688ZM453.215 14.9968C447.127 14.9968 442.285 17.2845 438.703 21.8809C435.128 26.4633 433.326 32.5213 433.326 40.0691C433.326 47.7229 435.128 53.7809 438.703 58.2503C442.285 62.7056 446.98 64.9297 452.772 64.9297C458.775 64.9297 463.511 62.7621 467.03 58.4339C470.535 54.0916 472.294 48.09 472.294 40.401C472.294 32.373 470.591 26.1314 467.192 21.6832C463.786 17.228 459.12 14.9968 453.215 14.9968Z" fill="white"/>
<path d="M407.209 15.4769H380.022V34.47H397.455C401.234 34.47 405.006 38.2616 405.006 42.0461V48.5913H380.022V78.6273H370.198C366.426 78.6273 362.646 74.8357 362.646 71.0512V1.30615H399.658C403.43 1.30615 407.209 5.09772 407.209 8.88222V15.4769Z" fill="white"/>
<path d="M335.706 78.6476C332.856 78.5982 328.922 79.2831 324.558 74.0935L295.746 30.0351C293.895 27.1967 292.593 25.0644 291.875 23.6311H291.671C291.946 26.3565 292.093 30.5293 292.093 36.1284V72.7167C292.093 75.4068 290.221 78.6264 287.667 78.6264H283.247H275.695V71.0503V66.4892V8.88139C276.456 3.07754 282.219 1.17823 286.034 1.30532C290.228 1.17823 293.803 1.69365 297.322 5.79589L324.988 48.3645C326.381 50.5039 327.662 52.6009 328.858 54.6767H329.076C328.788 52.8904 328.64 49.3389 328.64 44.0575V8.81784C328.64 5.09688 332.412 1.30532 336.213 1.30532H345.031L345.038 8.88139V56.8585V71.0503C344.827 76.6847 339.225 78.7111 335.706 78.6476Z" fill="white"/>
<path d="M250.641 78.6273H240.824C240.824 55.3766 240.824 32.1259 240.824 8.88222C240.824 5.09066 244.596 1.30615 248.368 1.30615H258.193V71.0724C258.193 74.8357 254.421 78.6273 250.641 78.6273Z" fill="white"/>
<path d="M222.012 78.6273H174.958C168.209 78.6273 165.358 70.8111 169.834 65.325L206.902 15.4769H170.249V8.89634C170.249 5.09772 174.022 1.30615 177.843 1.30615H220.703H229.373C229.662 7.1453 228.487 12.2431 225.488 16.4371L190.743 64.4848H229.486V71.0724C229.486 74.8357 225.714 78.6273 222.012 78.6273Z" fill="white"/>
<path d="M157.244 45.1457C157.244 68.354 146.455 79.9688 124.906 79.9688C103.968 79.9688 93.5104 68.6294 93.5175 45.9577L93.5245 8.88222C93.5245 5.09066 95.6851 1.30615 101.076 1.30615H110.922V46.1554C110.922 58.6739 115.806 64.9296 125.546 64.9296C135.103 64.9296 139.889 58.8928 139.889 46.8049V8.88222C139.889 5.09066 143.739 1.30615 147.426 1.30615H157.244V45.1457Z" fill="white"/>
<path fill-rule="evenodd" clip-rule="evenodd" d="M76.4999 1.40469H10.0499C4.51821 1.40469 0 5.94469 0 11.4873V13.7326C1.81573 14.0079 3.83555 14.5445 6.02428 15.3283C12.9072 17.7783 21.4791 22.6219 30.6844 29.3083C38.1655 23.7163 45.0554 19.72 50.6363 17.7289C56.0906 15.7943 60.3273 15.766 62.6919 18.0537C65.3804 20.6308 65.2677 25.7992 62.8749 32.5633C60.4328 39.4757 55.605 48.0755 48.9403 57.3109C54.5141 64.8163 58.4975 71.7216 60.4821 77.3278C60.5806 77.6031 60.6721 77.8856 60.7636 78.1609H66.4571C71.9817 78.1609 76.4999 73.628 76.4999 68.0783V1.40469ZM0 43.7403V68.0783C0 71.8487 2.0902 75.1531 5.16568 76.883C7.51628 76.9536 10.3525 76.3746 13.5828 75.2096C20.156 72.8372 28.3409 68.036 37.2928 61.3142C37.3632 61.2578 37.4688 61.2719 37.5251 61.3425C37.5743 61.406 37.5673 61.5049 37.504 61.5614C34.9845 63.969 32.472 66.2567 29.9947 68.3961C27.4682 70.5707 24.9768 72.6042 22.5488 74.4682H22.5418L21.1272 75.5485H21.1202C19.9027 76.4664 18.6992 77.3348 17.5098 78.1609H48.5321C50.8264 75.5061 50.6926 70.8249 48.5321 64.781C46.1674 58.1793 41.3818 49.9678 34.6748 40.9867C34.6255 40.916 34.6396 40.8172 34.71 40.7607C34.7733 40.7113 34.8719 40.7183 34.9211 40.7748H34.9282C37.328 43.3096 39.6082 45.8303 41.7407 48.3156C43.845 50.7798 45.8226 53.2086 47.6383 55.581C50.7841 49.4171 52.818 43.9521 53.5429 39.5392C54.2467 35.2746 53.7259 31.9985 51.8187 30.0427C49.2429 27.409 44.4361 27.4443 38.1374 29.7179C31.5571 32.0902 23.3722 36.8915 14.4203 43.6132C14.3499 43.6697 14.2514 43.6556 14.1951 43.585C14.1458 43.5144 14.1528 43.4226 14.2091 43.3661C16.7286 40.9584 19.2411 38.6708 21.7184 36.5384C24.1745 34.4203 26.5955 32.4433 28.9672 30.6146C22.8233 27.4514 17.3761 25.4179 12.9775 24.6907C8.72676 23.9846 5.46127 24.5071 3.51182 26.4205C0.879714 29.0047 0.921941 33.8272 3.18808 40.1464C5.55276 46.7481 10.3384 54.9597 17.0383 63.9337C17.0946 64.0114 17.0805 64.1103 17.0031 64.1667C16.9398 64.2162 16.8483 64.2091 16.792 64.1456C14.3851 61.6179 12.1119 59.0972 9.97948 56.6119C7.81186 54.0841 5.785 51.5776 3.92001 49.1417L2.85027 47.7155L2.84324 47.7084C1.84388 46.3669 0.89379 45.0395 0 43.7403Z" fill="white"/>
<path d="M290.039 126.04L294.036 107.294H305.156L304.557 110.026H296.182L295.204 114.615H303.495L302.918 117.32H294.655L293.374 123.335H301.644L301.067 126.04H290.039ZM310.23 122.079L312.855 120.681C313.566 122.756 314.502 123.794 315.67 123.794C316.479 123.794 317.183 123.561 317.802 123.102C318.422 122.643 318.816 122.029 318.999 121.26C319.027 121.111 319.041 120.935 319.041 120.73C319.041 120.193 318.675 119.53 317.936 118.725C317.697 118.464 317.211 117.948 316.493 117.179L315.051 115.653C314.6 115.173 314.305 114.792 314.157 114.517C313.819 113.86 313.65 113.175 313.65 112.469C313.65 112.356 313.664 112.194 313.699 111.982C313.734 111.77 313.749 111.615 313.749 111.502C313.91 110.873 314.178 110.266 314.565 109.687C315.339 108.543 316.345 107.731 317.598 107.251C318.26 106.99 318.893 106.863 319.498 106.863C320.596 106.863 321.532 107.202 322.32 107.88C322.926 108.409 323.531 109.228 324.122 110.337L321.546 112.031L320.8 110.803C320.498 110.301 320.083 109.955 319.548 109.758L318.9 109.666C318.147 109.666 317.556 109.885 317.127 110.316C316.704 110.753 316.493 111.346 316.493 112.102C316.493 112.455 316.726 112.935 317.19 113.528C317.303 113.676 317.464 113.832 317.669 114.008L318.999 115.124C320.983 116.797 321.983 118.506 321.983 120.243C321.983 122.093 321.131 123.66 319.428 124.931C318.049 125.962 316.669 126.477 315.29 126.477C313.925 126.477 312.827 126.068 311.989 125.242C311.299 124.564 310.715 123.512 310.23 122.079ZM337.409 110.005H333.433L334.01 107.294H344.707L344.123 110.005H340.168L336.748 126.04H333.989L337.409 110.005ZM353.244 122.418C353.681 122.418 354.047 122.573 354.342 122.891C354.638 123.201 354.785 123.575 354.785 124.013C354.785 124.19 354.778 124.317 354.764 124.394C354.666 124.91 354.377 125.376 353.906 125.778C353.434 126.181 352.935 126.379 352.4 126.379C351.956 126.379 351.583 126.216 351.281 125.898C350.985 125.574 350.837 125.185 350.837 124.733C350.837 124.578 350.844 124.465 350.865 124.394C350.992 123.865 351.288 123.406 351.752 123.011C352.217 122.615 352.716 122.418 353.244 122.418ZM376.476 113.846H373.822C374.245 111.848 375.139 110.203 376.525 108.918C377.982 107.548 379.699 106.863 381.677 106.863C382.444 106.863 383.176 107.018 383.865 107.322C385.217 107.915 386.054 108.939 386.392 110.386C386.476 110.725 386.511 111.071 386.511 111.424C386.511 113.698 385.392 115.823 383.14 117.807L381.311 119.424L376.785 123.357H384.344L383.795 126.04H370.191L381.508 115.999C381.93 115.625 382.331 115.202 382.711 114.714C383.415 113.832 383.767 112.921 383.767 111.982C383.767 111.212 383.506 110.605 382.986 110.167C382.465 109.737 381.81 109.518 381.022 109.518C379.453 109.518 378.2 110.252 377.271 111.721L376.835 112.561C376.821 112.582 376.701 113.006 376.476 113.846ZM394.647 116.67C395.175 114.008 396.048 111.841 397.272 110.146C398.842 107.957 400.812 106.863 403.17 106.863C405.098 106.863 406.484 107.661 407.336 109.256C407.836 110.188 408.082 111.205 408.082 112.3C408.082 113.987 407.955 115.442 407.695 116.67C407.167 119.184 406.252 121.351 404.95 123.187C403.395 125.383 401.41 126.477 399.003 126.477C396.646 126.477 395.147 125.39 394.499 123.215C394.295 122.509 394.19 121.45 394.19 120.052C394.19 119.516 394.239 118.951 394.33 118.336C394.38 118.033 394.485 117.475 394.647 116.67ZM397.286 116.72C397.216 116.96 397.131 117.404 397.033 118.047C396.871 119.106 396.787 119.904 396.787 120.433C396.787 122.756 397.73 123.914 399.609 123.914C401.291 123.914 402.691 122.799 403.796 120.561C404.634 118.88 405.154 117.016 405.358 114.954C405.422 114.326 405.457 113.811 405.457 113.408C405.457 110.817 404.528 109.518 402.67 109.518C401.15 109.518 399.925 110.301 399.01 111.862C398.454 112.829 398.096 113.62 397.934 114.227L397.286 116.72ZM416.457 116.67C416.985 114.008 417.857 111.841 419.082 110.146C420.651 107.957 422.615 106.863 424.98 106.863C426.901 106.863 428.294 107.661 429.146 109.256C429.639 110.188 429.892 111.205 429.892 112.3C429.892 113.987 429.758 115.442 429.505 116.67C428.977 119.184 428.062 121.351 426.76 123.187C425.205 125.383 423.22 126.477 420.813 126.477C418.456 126.477 416.95 125.39 416.309 123.215C416.098 122.509 415.999 121.45 415.999 120.052C415.999 119.516 416.049 118.951 416.14 118.336C416.19 118.033 416.295 117.475 416.457 116.67ZM419.089 116.72C419.026 116.96 418.941 117.404 418.843 118.047C418.681 119.106 418.596 119.904 418.596 120.433C418.596 122.756 419.539 123.914 421.411 123.914C423.101 123.914 424.494 122.799 425.606 120.561C426.436 118.88 426.957 117.016 427.168 114.954C427.232 114.326 427.267 113.811 427.267 113.408C427.267 110.817 426.331 109.518 424.48 109.518C422.953 109.518 421.735 110.301 420.82 111.862C420.264 112.829 419.898 113.62 419.744 114.227L419.089 116.72ZM441.898 113.846H439.252C439.667 111.848 440.568 110.203 441.948 108.918C443.404 107.548 445.122 106.863 447.099 106.863C447.866 106.863 448.598 107.018 449.288 107.322C450.639 107.915 451.484 108.939 451.814 110.386C451.899 110.725 451.941 111.071 451.941 111.424C451.941 113.698 450.815 115.823 448.57 117.807L446.74 119.424L442.215 123.357H449.773L449.217 126.04H435.614L446.937 115.999C447.353 115.625 447.754 115.202 448.134 114.714C448.837 113.832 449.196 112.921 449.196 111.982C449.196 111.212 448.929 110.605 448.408 110.167C447.887 109.737 447.233 109.518 446.452 109.518C444.875 109.518 443.623 110.252 442.694 111.721L442.257 112.561C442.243 112.582 442.124 113.006 441.898 113.846Z" fill="white"/>
<path fill-rule="evenodd" clip-rule="evenodd" d="M206.635 114.862H242.408C243.119 114.862 243.703 115.448 243.703 116.161C243.703 116.874 243.119 117.453 242.408 117.453H206.635C205.924 117.453 205.34 116.874 205.34 116.161C205.34 115.448 205.924 114.862 206.635 114.862Z" fill="white"/>
<path fill-rule="evenodd" clip-rule="evenodd" d="M497.221 114.862H533.001C533.712 114.862 534.296 115.448 534.296 116.161C534.296 116.874 533.712 117.453 533.001 117.453H497.221C496.511 117.453 495.933 116.874 495.933 116.161C495.933 115.448 496.511 114.862 497.221 114.862Z" fill="white"/>
</svg>
