<svg width="42" height="42" viewBox="0 0 42 42" fill="none" xmlns="http://www.w3.org/2000/svg">
<g id="_2616468517040">
<g id="&#208;&#161;&#208;&#179;&#209;&#128;&#209;&#131;&#208;&#191;&#208;&#191;&#208;&#184;&#209;&#128;&#208;&#190;&#208;&#178;&#208;&#176;&#209;&#130;&#209;&#140; 2002">
<path id="&#208;&#154;&#208;&#190;&#208;&#189;&#209;&#130;&#209;&#131;&#209;&#128; 14418" d="M21.8526 34.5644V12.8613C21.4659 12.9402 21.0675 12.9827 20.6576 12.9827C20.2488 12.9827 19.8495 12.9402 19.4626 12.8613V34.5644H15.1406L11.5566 41.7314H29.7576L26.1735 34.5644H21.8516H21.8526Z" fill="#FEFEFE" fill-opacity="0.368627"/>
<path id="&#208;&#154;&#208;&#190;&#208;&#189;&#209;&#130;&#209;&#131;&#209;&#128; 14419" d="M16.9944 23.7326V22.5376H0.270508V23.7326C0.270508 27.0361 4.01695 32.0949 8.63244 32.0949C13.2489 32.0949 16.9944 27.0351 16.9944 23.7326Z" fill="#FEFEFE" fill-opacity="0.368627"/>
<path id="&#208;&#154;&#208;&#190;&#208;&#189;&#209;&#130;&#209;&#131;&#209;&#128; 14420" d="M24.3213 22.5383V23.7333C24.3213 27.0358 28.0667 32.0947 32.6832 32.0947C37.2997 32.0947 41.0451 27.0349 41.0451 23.7333V22.5383H24.3213Z" fill="#FEFEFE" fill-opacity="0.368627"/>
<path id="&#208;&#154;&#208;&#190;&#208;&#189;&#209;&#130;&#209;&#131;&#209;&#128; 14421" d="M8.63291 14.1088L12.2567 20.1493H15.043L10.3772 12.3741L17.9771 9.36319C18.6343 10.1104 19.5861 10.5911 20.6575 10.5911C21.7277 10.5911 22.6806 10.1092 23.3368 9.36319L30.9367 12.3741L26.2719 20.1493H29.0582L32.682 14.1088L36.3059 20.1493H39.0921L33.4997 10.8289L24.2257 7.144C24.2278 7.09832 24.2394 7.05451 24.2394 7.00757C24.2394 5.45239 23.2372 4.13877 21.8504 3.64437V0.955811H19.4614V3.64437C18.0735 4.13877 17.0725 5.45239 17.0725 7.00757C17.0725 7.05576 17.0839 7.09832 17.0861 7.144L7.81213 10.8289L2.21973 20.1493H5.00593L8.6298 14.1088H8.63291Z" fill="#FEFEFE" fill-opacity="0.368627"/>
</g>
</g>
</svg>
