<svg width="32" height="32" viewBox="0 0 32 32" fill="none" xmlns="http://www.w3.org/2000/svg">
<g id="_2616468497984">
<g id="&#208;&#161;&#208;&#179;&#209;&#128;&#209;&#131;&#208;&#191;&#208;&#191;&#208;&#184;&#209;&#128;&#208;&#190;&#208;&#178;&#208;&#176;&#209;&#130;&#209;&#140; 1995">
<g id="&#208;&#161;&#208;&#179;&#209;&#128;&#209;&#131;&#208;&#191;&#208;&#191;&#208;&#184;&#209;&#128;&#208;&#190;&#208;&#178;&#208;&#176;&#209;&#130;&#209;&#140; 1994">
<path id="&#208;&#154;&#208;&#190;&#208;&#189;&#209;&#130;&#209;&#131;&#209;&#128; 14396" d="M30.6351 8.00251H25.0387V1.28729C25.0387 0.668816 24.5374 0.168701 23.92 0.168701H1.53566C0.916716 0.168701 0.416992 0.668816 0.416992 1.28729V27.0291C0.416992 29.5021 2.42121 31.5064 4.89292 31.5064H27.2772C29.7502 31.5064 31.7544 29.5021 31.7544 27.0291V9.12188C31.7544 8.50349 31.2538 8.00251 30.6361 8.00251H30.6351ZM9.36884 5.76431H16.084C16.7023 5.76431 17.2027 6.26529 17.2027 6.88369C17.2027 7.5024 16.702 8.00251 16.084 8.00251H9.36884C8.75052 8.00251 8.24955 7.50138 8.24955 6.88369C8.24955 6.26529 8.75052 5.76431 9.36884 5.76431ZM19.4416 27.0304H6.01033C5.39295 27.0304 4.89198 26.5292 4.89198 25.9118C4.89198 25.2933 5.39295 24.7922 6.01033 24.7922H19.4416C20.0602 24.7922 20.5599 25.2933 20.5599 25.9118C20.5599 26.5302 20.0589 27.0304 19.4416 27.0304ZM19.4416 22.5532H6.01033C5.39295 22.5532 4.89198 22.0522 4.89198 21.4347C4.89198 20.8164 5.39295 20.3151 6.01033 20.3151H19.4416C20.0602 20.3151 20.5599 20.8164 20.5599 21.4347C20.5599 22.0532 20.0589 22.5532 19.4416 22.5532ZM19.4416 18.0769H6.01033C5.39295 18.0769 4.89198 17.576 4.89198 16.9576C4.89198 16.3391 5.39295 15.8392 6.01033 15.8392H19.4416C20.0602 15.8392 20.5599 16.3401 20.5599 16.9576C20.5599 17.576 20.0589 18.0769 19.4416 18.0769ZM19.4416 13.6002H6.01033C5.39295 13.6002 4.89198 13.099 4.89198 12.4805C4.89198 11.8621 5.39295 11.362 6.01033 11.362H19.4416C20.0602 11.362 20.5599 11.8629 20.5599 12.4805C20.5599 13.099 20.0589 13.6002 19.4416 13.6002ZM29.514 27.0304C29.514 28.2662 28.5123 29.2683 27.2766 29.2683C26.0403 29.2683 25.0387 28.2662 25.0387 27.0304V10.2415H29.5152V27.0304H29.514Z" fill="#FEFEFE" fill-opacity="0.501961"/>
</g>
</g>
</g>
</svg>
