<svg width="28" height="36" viewBox="0 0 28 36" fill="none" xmlns="http://www.w3.org/2000/svg">
<g id="_2616468504224">
<g id="&#208;&#161;&#208;&#179;&#209;&#128;&#209;&#131;&#208;&#191;&#208;&#191;&#208;&#184;&#209;&#128;&#208;&#190;&#208;&#178;&#208;&#176;&#209;&#130;&#209;&#140; 1998">
<g id="&#208;&#161;&#208;&#179;&#209;&#128;&#209;&#131;&#208;&#191;&#208;&#191;&#208;&#184;&#209;&#128;&#208;&#190;&#208;&#178;&#208;&#176;&#209;&#130;&#209;&#140; 1997">
<g id="_2616313671904">
<path id="&#208;&#154;&#208;&#190;&#208;&#189;&#209;&#130;&#209;&#131;&#209;&#128; 14399" d="M24.9527 15.2086H22.6005C22.4056 15.2086 22.2148 15.1288 22.0763 14.9915L21.462 14.3772C21.0418 13.9567 20.4831 13.7251 19.8887 13.7251H16.6673C16.074 13.7251 15.5143 13.9567 15.0939 14.3772L14.4796 14.9915C14.3414 15.1288 14.1495 15.2086 13.9545 15.2086H11.6022C10.3759 15.2086 9.37793 16.2062 9.37793 17.4328V26.3337C9.37793 27.56 10.3759 28.5591 11.6022 28.5591H24.9527C26.1792 28.5591 27.1782 27.5612 27.1782 26.3337V17.4328C27.1782 16.2062 26.1804 15.2086 24.9527 15.2086ZM18.2775 26.3337C15.8237 26.3337 13.8277 24.3373 13.8277 21.884C13.8277 19.4295 15.8237 17.4338 18.2775 17.4338C20.7314 17.4338 22.7273 19.4295 22.7273 21.884C22.7273 24.3373 20.7314 26.3337 18.2775 26.3337Z" fill="#FEFEFE" fill-opacity="0.501961"/>
<path id="&#208;&#154;&#208;&#190;&#208;&#189;&#209;&#130;&#209;&#131;&#209;&#128; 14400" d="M21.2452 21.8827C21.2452 20.2444 19.9171 18.916 18.2772 18.916C16.6389 18.916 15.3105 20.2444 15.3105 21.8827C15.3105 23.5215 16.6389 24.8509 18.2772 24.8509C19.916 24.8509 21.2452 23.5225 21.2452 21.8827Z" fill="#FEFEFE" fill-opacity="0.501961"/>
<path id="&#208;&#154;&#208;&#190;&#208;&#189;&#209;&#130;&#209;&#131;&#209;&#128; 14401" d="M12.3448 6.30768C15.35 6.30768 17.8713 8.57506 18.2077 11.5815C18.2497 11.957 18.5674 12.2408 18.9447 12.2408H19.8881C20.8778 12.2408 21.8095 12.6267 22.5108 13.3288L22.691 13.5094C22.8305 13.6465 23.0193 13.725 23.2154 13.725H23.4228C23.8137 13.725 24.1378 13.4215 24.1629 13.031L24.1795 12.8047C24.1953 12.617 24.2101 12.4302 24.2101 12.2408C24.2101 5.6975 18.8871 0.374512 12.3427 0.374512C5.79959 0.374512 0.475586 5.6975 0.475586 12.2408C0.475586 14.2072 0.96694 16.1542 1.89997 17.8802L6.50192 26.2028C6.63397 26.4425 6.88556 26.5851 7.15067 26.5851C7.21255 26.5851 7.27443 26.5776 7.33631 26.562C7.66432 26.4759 7.89291 26.1824 7.89291 25.8432V17.4318C7.89291 17.1802 7.92115 16.9277 7.97677 16.6623C8.02409 16.4392 7.96636 16.2067 7.81859 16.0321C6.89698 14.9328 6.40954 13.6211 6.40954 12.2396C6.40954 8.96808 9.07212 6.30674 12.344 6.30674L12.3448 6.30768Z" fill="#FEFEFE" fill-opacity="0.501961"/>
<path id="&#208;&#154;&#208;&#190;&#208;&#189;&#209;&#130;&#209;&#131;&#209;&#128; 14402" d="M14.8052 30.0414H11.6025C11.0458 30.0414 10.489 29.9021 9.94609 29.6293C9.65458 29.4837 9.30347 29.541 9.07698 29.7773C8.85174 30.0123 8.80543 30.3653 8.96276 30.6519L11.6946 35.5939C11.8259 35.8292 12.0742 35.9763 12.3435 35.9763C12.614 35.9763 12.8628 35.8304 12.9927 35.5939L15.453 31.1433C15.5809 30.9126 15.5768 30.6328 15.4435 30.4072C15.3104 30.1807 15.0672 30.0426 14.8052 30.0426V30.0414Z" fill="#FEFEFE" fill-opacity="0.501961"/>
</g>
</g>
</g>
</g>
</svg>
