<svg width="33" height="34" viewBox="0 0 33 34" fill="none" xmlns="http://www.w3.org/2000/svg">
<g id="_2616468512336">
<g id="&#208;&#161;&#208;&#179;&#209;&#128;&#209;&#131;&#208;&#191;&#208;&#191;&#208;&#184;&#209;&#128;&#208;&#190;&#208;&#178;&#208;&#176;&#209;&#130;&#209;&#140; 2001">
<g id="&#208;&#161;&#208;&#179;&#209;&#128;&#209;&#131;&#208;&#191;&#208;&#191;&#208;&#184;&#209;&#128;&#208;&#190;&#208;&#178;&#208;&#176;&#209;&#130;&#209;&#140; 2000">
<g id="_2616313659808">
<path id="&#208;&#154;&#208;&#190;&#208;&#189;&#209;&#130;&#209;&#131;&#209;&#128; 14408" d="M15.966 7.48087C15.643 5.58336 14.1066 3.68522 11.715 2.30058C7.69156 0.099537 4.54114 0.81924 3.00411 1.44601C1.18295 2.22485 0.461053 3.28688 0.366553 3.4011L0.0195312 3.85576L0.309916 4.34954C0.34903 4.38771 0.880671 5.45068 1.99997 6.68419C5.24614 10.309 8.50952 11.7518 13.463 11.7706C13.3875 11.6182 13.3103 11.4674 13.2158 11.3335C11.8877 9.1897 9.70548 7.42455 7.06793 6.36126L7.78982 4.59737C10.7875 5.81241 13.2927 7.8426 14.811 10.309C14.9246 10.4992 15.0385 10.6886 15.1521 10.8782C15.893 9.81521 16.1578 8.65805 15.9685 7.48087H15.966Z" fill="#FEFEFE" fill-opacity="0.501961"/>
</g>
<g id="_2616313660192">
<path id="&#208;&#154;&#208;&#190;&#208;&#189;&#209;&#130;&#209;&#131;&#209;&#128; 14409" d="M32.1233 3.4C30.0048 0.856946 25.5461 -0.347461 20.6925 2.31857C18.3206 3.68413 16.783 5.58289 16.4597 7.48009C16.2695 8.65633 16.5355 9.81443 17.2761 10.8777C17.3891 10.6875 17.5036 10.4981 17.6175 10.3079C19.1355 7.84025 21.6406 5.81007 24.6393 4.59627L25.3603 6.36048C22.7221 7.42314 20.5404 9.1886 19.23 11.3145C19.1345 11.4663 19.04 11.6174 18.9643 11.7695C23.9171 11.7504 27.1814 10.3079 30.4267 6.6831C31.5459 5.45053 32.1405 4.38787 32.178 4.34876L32.4055 3.85529L32.1208 3.4H32.1233Z" fill="#FEFEFE" fill-opacity="0.501961"/>
</g>
</g>
<g id="Agriculture">
<g id="_2616313662208">
<path id="&#208;&#154;&#208;&#190;&#208;&#189;&#209;&#130;&#209;&#131;&#209;&#128; 14410" d="M32.4083 33.1998H0.0185547V32.1876C0.0185547 27.6347 4.63498 24.399 8.88999 25.9274C10.4204 23.3631 13.2026 21.75 16.2134 21.75C19.2246 21.75 22.0074 23.3631 23.5372 25.9274C27.7913 24.399 32.4083 27.6326 32.4083 32.1876V33.1998Z" fill="#FEFEFE" fill-opacity="0.501961"/>
</g>
</g>
<path id="&#208;&#154;&#208;&#190;&#208;&#189;&#209;&#130;&#209;&#131;&#209;&#128; 14411" d="M18.9653 11.7695C17.808 13.7626 17.2191 16.2114 17.1627 19.0578V19.8368C16.8391 19.7986 16.5343 19.78 16.2133 19.78C15.8903 19.78 15.5868 19.7986 15.2651 19.8368V19.0578C15.2081 16.1913 14.6204 13.7435 13.4619 11.7695C13.4619 11.7695 15.0372 11.0673 15.1518 10.8784C15.5686 11.6184 15.9291 12.3965 16.2139 13.2319C16.4999 12.3965 16.8604 11.5996 17.2779 10.8784C17.3905 11.0681 18.9665 11.7695 18.9665 11.7695H18.9653Z" fill="#FEFEFE" fill-opacity="0.501961"/>
</g>
</g>
</svg>
