<svg width="36" height="35" viewBox="0 0 36 35" fill="none" xmlns="http://www.w3.org/2000/svg">
<g id="_2616468513584">
<g id="surface1">
<path id="&#208;&#154;&#208;&#190;&#208;&#189;&#209;&#130;&#209;&#131;&#209;&#128; 14412" d="M1.96333 34.5572H20.2169C20.7723 34.5572 21.2234 34.1066 21.2234 33.5509V32.477C21.2234 31.3655 20.3214 30.4649 19.2094 30.4649V29.2608C19.2094 27.6675 17.9137 26.3701 16.3197 26.3701H5.85973C4.26653 26.3701 2.96981 27.6675 2.96981 29.2608V30.4649C1.8574 30.4649 0.956055 31.3655 0.956055 32.477V33.5509C0.956055 34.1066 1.40696 34.5572 1.96254 34.5572H1.96333Z" fill="#FEFEFE" fill-opacity="0.501961"/>
<path id="&#208;&#154;&#208;&#190;&#208;&#189;&#209;&#130;&#209;&#131;&#209;&#128; 14413" d="M13.5545 22.3658C14.223 23.2545 15.4851 23.4313 16.3733 22.7629C17.2614 22.0942 17.4391 20.8303 16.7693 19.9435L10.7115 11.9051C10.0429 11.0173 8.78079 10.8387 7.89306 11.508C7.00485 12.1783 6.8268 13.4405 7.49659 14.3283L13.5545 22.3677V22.3658Z" fill="#FEFEFE" fill-opacity="0.501961"/>
<path id="&#208;&#154;&#208;&#190;&#208;&#189;&#209;&#130;&#209;&#131;&#209;&#128; 14414" d="M28.025 11.4625C28.6939 12.3512 29.9557 12.5289 30.8447 11.8596C31.7329 11.1903 31.9097 9.92863 31.2413 9.03933L25.1833 1.00181C24.5149 0.113138 23.2526 -0.0652235 22.3644 0.604726C21.4763 1.27405 21.2986 2.53728 21.9684 3.42502L28.0263 11.4641L28.025 11.4625Z" fill="#FEFEFE" fill-opacity="0.501961"/>
<path id="&#208;&#154;&#208;&#190;&#208;&#189;&#209;&#130;&#209;&#131;&#209;&#128; 14415" d="M23.6087 17.312C25.096 16.1912 26.2133 14.7987 26.9129 13.333L19.8639 3.97876C18.2624 4.24661 16.6165 4.93628 15.1281 6.05776C13.6408 7.17862 12.523 8.57046 11.8242 10.0368L18.8725 19.3917C20.4743 19.1226 22.1202 18.4335 23.6087 17.312Z" fill="#FEFEFE" fill-opacity="0.501961"/>
<path id="&#208;&#154;&#208;&#190;&#208;&#189;&#209;&#130;&#209;&#131;&#209;&#128; 14416" d="M26.3276 17.573C25.8591 18.0515 25.3655 18.5084 24.8216 18.9193C24.2771 19.3295 23.7003 19.6784 23.1123 19.9973L24.4262 21.7398L27.6415 19.317L26.3276 17.5749V17.573Z" fill="#FEFEFE" fill-opacity="0.501961"/>
<path id="&#208;&#154;&#208;&#190;&#208;&#189;&#209;&#130;&#209;&#131;&#209;&#128; 14417" d="M28.8508 20.9233L25.6357 23.3472L31.6936 31.3859C32.3634 32.2734 33.6252 32.4505 34.5133 31.7827C35.401 31.1125 35.5784 29.8502 34.9094 28.9627L28.8516 20.9233H28.8508Z" fill="#FEFEFE" fill-opacity="0.501961"/>
</g>
</g>
</svg>
