<svg width="38" height="38" viewBox="0 0 38 38" fill="none" xmlns="http://www.w3.org/2000/svg">
<g id="_2616468517856">
<g id="&#208;&#161;&#208;&#179;&#209;&#128;&#209;&#131;&#208;&#191;&#208;&#191;&#208;&#184;&#209;&#128;&#208;&#190;&#208;&#178;&#208;&#176;&#209;&#130;&#209;&#140; 2003">
<path id="&#208;&#154;&#208;&#190;&#208;&#189;&#209;&#130;&#209;&#131;&#209;&#128; 14422" d="M18.7744 15.7541C22.2462 15.7541 25.0712 12.9298 25.0712 9.45798C25.0712 5.98682 22.2462 3.16089 18.7744 3.16089C15.3026 3.16089 12.4775 5.98588 12.4775 9.45798C12.4775 12.9298 15.3015 15.7541 18.7744 15.7541ZM14.3665 8.19818C14.3665 7.85022 14.6485 7.56797 14.9965 7.56797H16.8854V5.67954C16.8854 5.33157 17.1674 5.04933 17.5154 5.04933H20.0344C20.3824 5.04933 20.6644 5.33157 20.6644 5.67954V7.56797H22.5533C22.9014 7.56797 23.1834 7.85022 23.1834 8.19818V10.7168C23.1834 11.0657 22.9014 11.347 22.5533 11.347H20.6644V13.2364C20.6644 13.5834 20.3824 13.8657 20.0344 13.8657H17.5154C17.1674 13.8657 16.8854 13.5834 16.8854 13.2364V11.347H14.9965C14.6485 11.347 14.3665 11.0657 14.3665 10.7168V8.19818Z" fill="white" fill-opacity="0.168627"/>
<path id="&#208;&#154;&#208;&#190;&#208;&#189;&#209;&#130;&#209;&#131;&#209;&#128; 14423" d="M4.29102 20.8898L8.92115 17.8855C9.90861 17.3085 11.0062 17.0119 12.1204 17.0119H12.2745C12.8877 17.0119 13.4957 17.1023 14.0838 17.2785L18.5546 18.6187C19.3177 18.8481 19.8629 19.4748 19.9981 20.2349L24.8264 16.2844C25.2425 15.9433 25.7718 15.753 26.3138 15.753H26.4983C27.7929 15.753 28.8475 16.8085 28.8475 18.1039C28.8475 18.7974 28.5445 19.4517 28.0151 19.8976L20.4394 26.3092C20.3262 26.4049 20.1815 26.4572 20.0326 26.4572H10.156L5.65898 29.6051H33.2554V13.2344H25.3075C23.9982 15.4889 21.5631 17.0128 18.7737 17.0128C15.9843 17.0128 13.5492 15.4889 12.2399 13.2344H4.29201V20.8898H4.29102Z" fill="white" fill-opacity="0.168627"/>
<path id="&#208;&#154;&#208;&#190;&#208;&#189;&#209;&#130;&#209;&#131;&#209;&#128; 14424" d="M35.7737 11.3466C35.7737 10.9996 35.4917 10.717 35.1437 10.717H26.2147C26.1424 11.1514 26.0313 11.5716 25.8877 11.9768H33.8838C34.2318 11.9768 34.5137 12.2585 34.5137 12.607V30.2379C34.5137 30.5858 34.2318 30.8672 33.8838 30.8672H3.66043C3.31243 30.8672 3.03046 30.5858 3.03046 30.2379V12.607C3.03046 12.2585 3.31243 11.9768 3.66043 11.9768H11.6576C11.5129 11.5716 11.404 11.1514 11.3305 10.717H2.4015C2.0535 10.717 1.77148 10.9996 1.77148 11.3466V32.1254H35.7727V11.3466H35.7737Z" fill="white" fill-opacity="0.168627"/>
<path id="&#208;&#154;&#208;&#190;&#208;&#189;&#209;&#130;&#209;&#131;&#209;&#128; 14425" d="M16.8856 21.4196H17.9601C18.4098 21.4196 18.7746 21.055 18.7746 20.606C18.7746 20.243 18.5419 19.9292 18.1939 19.8253L13.723 18.4851C13.2524 18.343 12.766 18.2717 12.2754 18.2717H12.1213C11.2303 18.2717 10.3518 18.5092 9.58347 18.9576L4.29297 22.3921V29.0256L9.59816 25.3119C9.70404 25.2381 9.82985 25.199 9.95871 25.199H19.8029L27.2026 18.936C27.4478 18.7282 27.5893 18.4259 27.5893 18.1039C27.5893 17.5019 27.0998 17.0134 26.4992 17.0134H26.3147C26.0631 17.0134 25.8188 17.1007 25.6239 17.2594L19.1719 22.5376C19.0597 22.6287 18.9182 22.6794 18.7735 22.6794H17.9591H16.8846H13.7367V21.4196H16.8846H16.8856Z" fill="white" fill-opacity="0.168627"/>
<path id="&#208;&#154;&#208;&#190;&#208;&#189;&#209;&#130;&#209;&#131;&#209;&#128; 14426" d="M24.4401 33.3845V34.0141C24.4401 35.0555 23.5931 35.9032 22.5511 35.9032H14.9953C13.9544 35.9032 13.1063 35.0555 13.1063 34.0141V33.3845H0.513672V35.273C0.513672 36.3143 1.36167 37.1623 2.40262 37.1623H35.1438C36.1847 37.1623 37.0328 36.3143 37.0328 35.273V33.3845H24.4391H24.4401ZM3.03259 35.9032H1.77264V34.6437H3.03259V35.9032ZM5.55163 35.9032H4.29258V34.6437H5.55163V35.9032Z" fill="white" fill-opacity="0.168627"/>
<path id="&#208;&#154;&#208;&#190;&#208;&#189;&#209;&#130;&#209;&#131;&#209;&#128; 14427" d="M18.1441 10.7178V12.6067H19.4032V10.7178C19.4032 10.3698 19.6852 10.0869 20.0333 10.0869H21.9224V8.82886H20.0333C19.6852 8.82886 19.4032 8.54659 19.4032 8.19798V6.30908H18.1441V8.19798C18.1441 8.54659 17.8621 8.82886 17.5141 8.82886H15.625V10.0869H17.5141C17.8621 10.0869 18.1441 10.3698 18.1441 10.7178Z" fill="white" fill-opacity="0.168627"/>
<path id="&#208;&#154;&#208;&#190;&#208;&#189;&#209;&#130;&#209;&#131;&#209;&#128; 14428" d="M14.9952 34.6434H22.5516C22.8997 34.6434 23.1817 34.3621 23.1817 34.0141V33.3835H14.3662V34.0141C14.3662 34.3602 14.6482 34.6434 14.9962 34.6434H14.9952Z" fill="white" fill-opacity="0.168627"/>
<path id="&#208;&#154;&#208;&#190;&#208;&#189;&#209;&#130;&#209;&#131;&#209;&#128; 14429" d="M33.885 2.53174C33.885 1.14073 32.7579 0.0119629 31.3668 0.0119629C29.9757 0.0119629 28.8477 1.13979 28.8477 2.53174C28.8477 3.92276 29.9757 5.05059 31.3668 5.05059C32.7579 5.05059 33.885 3.92276 33.885 2.53174Z" fill="white" fill-opacity="0.168627"/>
<path id="&#208;&#154;&#208;&#190;&#208;&#189;&#209;&#130;&#209;&#131;&#209;&#128; 14430" d="M8.69948 5.05079C8.69948 3.65946 7.57148 2.53101 6.18031 2.53101C4.78914 2.53101 3.66113 3.65946 3.66113 5.05079C3.66113 6.44149 4.78914 7.56869 6.18031 7.56869C7.57148 7.56869 8.69948 6.44149 8.69948 5.05079Z" fill="white" fill-opacity="0.168627"/>
</g>
</g>
</svg>
