<svg width="40" height="23" viewBox="0 0 40 23" fill="none" xmlns="http://www.w3.org/2000/svg">
<g id="_2616468527216">
<g id="&#208;&#161;&#208;&#179;&#209;&#128;&#209;&#131;&#208;&#191;&#208;&#191;&#208;&#184;&#209;&#128;&#208;&#190;&#208;&#178;&#208;&#176;&#209;&#130;&#209;&#140; 2015">
<path id="&#208;&#154;&#208;&#190;&#208;&#189;&#209;&#130;&#209;&#131;&#209;&#128; 14449" d="M38.7181 19.6642L38.278 2.8325L38.8555 1.62746H35.6542L36.3115 2.81591L36.1046 11.9946H33.364V10.2132C33.364 10.2132 34.1855 9.58456 34.1855 8.3448C34.1855 6.70731 32.0389 5.60022 31.6109 5.39839V4.93434H31.3709V5.46817C31.1687 5.59115 30.8095 5.81801 30.5072 6.06209V0.55542H9.40288V6.05802C9.10311 5.81457 8.7478 5.58958 8.543 5.46567V4.93434H8.29892V5.39339C7.87039 5.60022 5.72458 6.70638 5.72458 8.3448C5.72458 9.58456 6.54832 10.2132 6.54832 10.2132V11.9902H3.80375L3.60364 2.81497L4.25889 1.6259H1.05965L1.63729 2.82999L1.19671 19.662H0.172852V22.349H39.7369V19.6642H38.7172H38.7181ZM8.06518 19.6642H6.4496V16.0462C6.4496 16.0462 6.80288 15.3262 7.25801 15.3262C7.71393 15.3262 8.0622 16.0462 8.0622 16.0462L8.06643 19.6642H8.06518ZM25.4799 19.6642H14.4366V10.2533C14.4366 7.81503 19.9597 5.52638 19.9597 5.52638C19.9597 5.52638 25.4807 7.61477 25.4807 10.2533V19.6642H25.4799ZM33.4644 19.6642H31.8534V16.0462C31.8534 16.0462 32.2021 15.3262 32.6593 15.3262C33.1144 15.3262 33.4611 16.0462 33.4611 16.0462L33.4652 19.6642H33.4644Z" fill="#FEFEFE" fill-opacity="0.329412"/>
</g>
</g>
</svg>
