<svg width="24" height="25" viewBox="0 0 24 25" fill="none" xmlns="http://www.w3.org/2000/svg">
<g id="vuesax/bold/arrow-left">
<g id="arrow-left">
<path id="Vector" d="M6 15.1701L6 9.83008C6 6.51008 8.35 5.16008 11.22 6.81007L12.5 7.55007C12.81 7.73007 13 8.06008 13 8.42008L13 16.5801C13 16.9401 12.81 17.2701 12.5 17.4501L11.22 18.1901C8.35 19.8401 6 18.4901 6 15.1701Z" fill="white"/>
<path id="Vector_2" d="M14.0004 15.7099L14.0004 9.27994C14.0004 8.88994 14.4204 8.64994 14.7504 8.84994L15.8504 9.48994C18.7204 11.1399 18.7204 13.8599 15.8504 15.5099L14.7504 16.1499C14.4204 16.3399 14.0004 16.0999 14.0004 15.7099Z" fill="white"/>
</g>
</g>
</svg>
