<svg width="20" height="20" viewBox="0 0 20 20" fill="none" xmlns="http://www.w3.org/2000/svg">
<g id="vuesax/bold/global">
<path id="Vector" d="M6.3748 17.425C6.3498 17.425 6.31647 17.4417 6.29147 17.4417C4.6748 16.6417 3.35814 15.3167 2.5498 13.7C2.5498 13.675 2.56647 13.6417 2.56647 13.6167C3.58314 13.9167 4.63314 14.1417 5.6748 14.3167C5.85814 15.3667 6.0748 16.4084 6.3748 17.425Z" fill="white"/>
<path id="Vector_2" d="M17.4502 13.7084C16.6252 15.3667 15.2502 16.7084 13.5752 17.5167C13.8919 16.4584 14.1585 15.3917 14.3335 14.3167C15.3835 14.1417 16.4169 13.9167 17.4335 13.6167C17.4252 13.65 17.4502 13.6834 17.4502 13.7084Z" fill="white"/>
<path id="Vector_3" d="M17.5169 6.42507C16.4669 6.1084 15.4085 5.85007 14.3335 5.66673C14.1585 4.59173 13.9002 3.52507 13.5752 2.4834C15.3002 3.3084 16.6919 4.70007 17.5169 6.42507Z" fill="white"/>
<path id="Vector_4" d="M6.37507 2.57505C6.07507 3.59172 5.8584 4.62505 5.6834 5.67505C4.6084 5.84172 3.54173 6.10838 2.4834 6.42505C3.29173 4.75005 4.6334 3.37505 6.29173 2.55005C6.31673 2.55005 6.35006 2.57505 6.37507 2.57505Z" fill="white"/>
<path id="Vector_5" d="M12.9085 5.49175C10.9751 5.27508 9.02513 5.27508 7.0918 5.49175C7.30013 4.35008 7.5668 3.20841 7.9418 2.10841C7.95846 2.04175 7.95013 1.99175 7.95846 1.92508C8.6168 1.76675 9.2918 1.66675 10.0001 1.66675C10.7001 1.66675 11.3835 1.76675 12.0335 1.92508C12.0418 1.99175 12.0418 2.04175 12.0585 2.10841C12.4335 3.21675 12.7001 4.35008 12.9085 5.49175Z" fill="white"/>
<path id="Vector_6" d="M5.49199 12.9085C4.34199 12.7001 3.20866 12.4335 2.10866 12.0585C2.04199 12.0418 1.99199 12.0501 1.92533 12.0418C1.76699 11.3835 1.66699 10.7085 1.66699 10.0001C1.66699 9.30013 1.76699 8.6168 1.92533 7.9668C1.99199 7.95846 2.04199 7.95846 2.10866 7.9418C3.21699 7.57513 4.34199 7.30013 5.49199 7.0918C5.28366 9.02513 5.28366 10.9751 5.49199 12.9085Z" fill="white"/>
<path id="Vector_7" d="M18.3328 10.0001C18.3328 10.7085 18.2328 11.3835 18.0745 12.0418C18.0078 12.0501 17.9578 12.0418 17.8911 12.0585C16.7828 12.4251 15.6495 12.7001 14.5078 12.9085C14.7245 10.9751 14.7245 9.02513 14.5078 7.0918C15.6495 7.30013 16.7911 7.5668 17.8911 7.9418C17.9578 7.95846 18.0078 7.9668 18.0745 7.9668C18.2328 8.62513 18.3328 9.30013 18.3328 10.0001Z" fill="white"/>
<path id="Vector_8" d="M12.9085 14.5083C12.7001 15.6583 12.4335 16.7916 12.0585 17.8916C12.0418 17.9583 12.0418 18.0083 12.0335 18.075C11.3835 18.2333 10.7001 18.3333 10.0001 18.3333C9.2918 18.3333 8.6168 18.2333 7.95846 18.075C7.95013 18.0083 7.95846 17.9583 7.9418 17.8916C7.57513 16.7833 7.30013 15.6583 7.0918 14.5083C8.05846 14.6166 9.02513 14.6916 10.0001 14.6916C10.9751 14.6916 11.9501 14.6166 12.9085 14.5083Z" fill="white"/>
<path id="Vector_9" d="M13.1364 13.1362C11.0522 13.3992 8.94846 13.3992 6.86422 13.1362C6.60125 11.0519 6.60125 8.94822 6.86422 6.86397C8.94846 6.60101 11.0522 6.60101 13.1364 6.86397C13.3994 8.94822 13.3994 11.0519 13.1364 13.1362Z" fill="white"/>
</g>
</svg>
