<svg width="38" height="38" viewBox="0 0 38 38" fill="none" xmlns="http://www.w3.org/2000/svg">
<g id="_2616468507920">
<g id="&#208;&#161;&#208;&#179;&#209;&#128;&#209;&#131;&#208;&#191;&#208;&#191;&#208;&#184;&#209;&#128;&#208;&#190;&#208;&#178;&#208;&#176;&#209;&#130;&#209;&#140; 1999">
<path id="&#208;&#154;&#208;&#190;&#208;&#189;&#209;&#130;&#209;&#131;&#209;&#128; 14403" d="M9.69497 26.0845H9.68668C9.10075 26.0845 8.62402 26.5623 8.62402 27.1495V37.1801H10.7583V27.1495C10.7583 26.5623 10.2812 26.0845 9.69497 26.0845Z" fill="#FEFEFE" fill-opacity="0.501961"/>
<path id="&#208;&#154;&#208;&#190;&#208;&#189;&#209;&#130;&#209;&#131;&#209;&#128; 14404" d="M18.9248 24.6431H18.917C18.331 24.6431 17.8535 25.1209 17.8535 25.7081V37.1803H19.9882V25.7081C19.9882 25.1209 19.5112 24.6431 18.9248 24.6431Z" fill="#FEFEFE" fill-opacity="0.501961"/>
<path id="&#208;&#154;&#208;&#190;&#208;&#189;&#209;&#130;&#209;&#131;&#209;&#128; 14405" d="M28.2246 26.0845H28.2163C27.63 26.0845 27.1533 26.5623 27.1533 27.1495V37.1801H29.2876V27.1495C29.2876 26.5623 28.8105 26.0845 28.2246 26.0845Z" fill="#FEFEFE" fill-opacity="0.501961"/>
<path id="&#208;&#154;&#208;&#190;&#208;&#189;&#209;&#130;&#209;&#131;&#209;&#128; 14406" d="M20.0233 14.5709C20.0233 13.9825 19.545 13.5059 18.955 13.5059C18.3657 13.5059 17.8877 13.9825 17.8877 14.5709C17.8877 15.159 18.3657 15.636 18.955 15.636C19.5445 15.636 20.0233 15.159 20.0233 14.5709Z" fill="#FEFEFE" fill-opacity="0.501961"/>
<path id="&#208;&#154;&#208;&#190;&#208;&#189;&#209;&#130;&#209;&#131;&#209;&#128; 14407" d="M25.0591 19.5879H37.1305V17.0426C37.1305 16.5995 36.8553 16.2021 36.4408 16.045L20.0193 9.88157V7.22086H25.8567C26.4426 7.22086 26.9201 6.74367 26.9201 6.1557V2.60538C26.9201 2.01835 26.4426 1.54022 25.8567 1.54022H19.9582C19.8129 1.12717 19.4192 0.82959 18.9572 0.82959C18.3713 0.82959 17.8943 1.30647 17.8943 1.89444V9.87907L1.49505 16.0353L1.4722 16.045C1.05743 16.2003 0.782227 16.5977 0.782227 17.042V19.5869H12.8545C13.5095 19.5869 14.0398 20.1198 14.0398 20.7751C14.0398 21.4303 13.5095 21.9616 12.8545 21.9616H2.2753V36.1141C2.2753 36.7018 2.75187 37.1793 3.33827 37.1793H6.50089V27.1482C6.50089 25.3859 7.93091 23.953 9.68964 23.953H9.69762C11.456 23.953 12.8856 25.3852 12.8856 27.1482V37.1793H15.7294V25.7069C15.7294 23.9458 17.1594 22.5117 18.9186 22.5117H18.9269C20.6858 22.5117 22.1153 23.9446 22.1153 25.7057V37.178H25.0296V27.1469C25.0296 25.3852 26.4604 23.9518 28.2184 23.9518H28.2267C29.9848 23.9518 31.4156 25.384 31.4156 27.1469V37.178H34.5782C35.1645 37.178 35.6412 36.7011 35.6412 36.1129V21.9604H25.062C24.4055 21.9604 23.8766 21.4269 23.8766 20.7738C23.8766 20.1173 24.4068 19.5863 25.062 19.5863L25.0591 19.5879ZM18.956 17.7664C17.1958 17.7664 15.7642 16.3336 15.7642 14.5712C15.7642 12.8092 17.1958 11.3764 18.956 11.3764C20.7169 11.3764 22.1493 12.8092 22.1493 14.5712C22.1493 16.3323 20.7169 17.7664 18.956 17.7664Z" fill="#FEFEFE" fill-opacity="0.501961"/>
</g>
</g>
</svg>
