<svg width="37" height="37" viewBox="0 0 37 37" fill="none" xmlns="http://www.w3.org/2000/svg">
<path id="&#208;&#154;&#208;&#190;&#208;&#189;&#209;&#130;&#209;&#131;&#209;&#128; 14408" d="M24.7671 19.1206H36.8385V16.5753C36.8385 16.1322 36.5633 15.7348 36.1488 15.5778L19.7273 9.41429V6.75358H25.5647C26.1506 6.75358 26.6281 6.27638 26.6281 5.68842V2.13809C26.6281 1.55107 26.1506 1.07293 25.5647 1.07293H19.6662C19.5209 0.659886 19.1273 0.362305 18.6652 0.362305C18.0793 0.362305 17.6023 0.839186 17.6023 1.42715V9.41179L1.20305 15.5681L1.18021 15.5778C0.765442 15.733 0.490234 16.1304 0.490234 16.5747V19.1196H12.5625C13.2176 19.1196 13.7478 19.6525 13.7478 20.3078C13.7478 20.963 13.2176 21.4943 12.5625 21.4943H1.9833V35.6468C1.9833 36.2345 2.45987 36.712 3.04627 36.712H6.2089V26.6809C6.2089 24.9186 7.63892 23.4857 9.39765 23.4857H9.40563C11.1641 23.4857 12.5936 24.9179 12.5936 26.6809V36.712H15.4374V25.2396C15.4374 23.4785 16.8674 22.0444 18.6266 22.0444H18.6349C20.3938 22.0444 21.8233 23.4773 21.8233 25.2384V36.7107H24.7376V26.6796C24.7376 24.9179 26.1684 23.4845 27.9264 23.4845H27.9347C29.6928 23.4845 31.1236 24.9167 31.1236 26.6796V36.7107H34.2862C34.8725 36.7107 35.3492 36.2339 35.3492 35.6456V21.4931H24.77C24.1135 21.4931 23.5846 20.9596 23.5846 20.3065C23.5846 19.65 24.1148 19.119 24.77 19.119L24.7671 19.1206ZM18.664 17.2991C16.9038 17.2991 15.4723 15.8663 15.4723 14.1039C15.4723 12.3419 16.9038 10.9091 18.664 10.9091C20.4249 10.9091 21.8573 12.3419 21.8573 14.1039C21.8573 15.865 20.4249 17.2991 18.664 17.2991Z" fill="#FEFEFE" fill-opacity="0.501961"/>
</svg>
