<svg width="25" height="24" viewBox="0 0 25 24" fill="none" xmlns="http://www.w3.org/2000/svg">
<g id="vuesax/bold/call">
<g id="call">
<path id="Vector" d="M11.55 14.95L9.7 16.8C9.31 17.19 8.69 17.19 8.29 16.81C8.18 16.7 8.07 16.6 7.96 16.49C6.93 15.45 6 14.36 5.17 13.22C4.35 12.08 3.69 10.94 3.21 9.81C2.74 8.67 2.5 7.58 2.5 6.54C2.5 5.86 2.62 5.21 2.86 4.61C3.1 4 3.48 3.44 4.01 2.94C4.65 2.31 5.35 2 6.09 2C6.37 2 6.65 2.06 6.9 2.18C7.16 2.3 7.39 2.48 7.57 2.74L9.89 6.01C10.07 6.26 10.2 6.49 10.29 6.71C10.38 6.92 10.43 7.13 10.43 7.32C10.43 7.56 10.36 7.8 10.22 8.03C10.09 8.26 9.9 8.5 9.66 8.74L8.9 9.53C8.79 9.64 8.74 9.77 8.74 9.93C8.74 10.01 8.75 10.08 8.77 10.16C8.8 10.24 8.83 10.3 8.85 10.36C9.03 10.69 9.34 11.12 9.78 11.64C10.23 12.16 10.71 12.69 11.23 13.22C11.33 13.32 11.44 13.42 11.54 13.52C11.94 13.91 11.95 14.55 11.55 14.95Z" fill="white" fill-opacity="0.4"/>
<path id="Vector_2" d="M22.4701 18.33C22.4701 18.61 22.4201 18.9 22.3201 19.18C22.2901 19.26 22.2601 19.34 22.2201 19.42C22.0501 19.78 21.8301 20.12 21.5401 20.44C21.0501 20.98 20.5101 21.37 19.9001 21.62C19.8901 21.62 19.8801 21.63 19.8701 21.63C19.2801 21.87 18.6401 22 17.9501 22C16.9301 22 15.8401 21.76 14.6901 21.27C13.5401 20.78 12.3901 20.12 11.2501 19.29C10.8601 19 10.4701 18.71 10.1001 18.4L13.3701 15.13C13.6501 15.34 13.9001 15.5 14.1101 15.61C14.1601 15.63 14.2201 15.66 14.2901 15.69C14.3701 15.72 14.4501 15.73 14.5401 15.73C14.7101 15.73 14.8401 15.67 14.9501 15.56L15.7101 14.81C15.9601 14.56 16.2001 14.37 16.4301 14.25C16.6601 14.11 16.8901 14.04 17.1401 14.04C17.3301 14.04 17.5301 14.08 17.7501 14.17C17.9701 14.26 18.2001 14.39 18.4501 14.56L21.7601 16.91C22.0201 17.09 22.2001 17.3 22.3101 17.55C22.4101 17.8 22.4701 18.05 22.4701 18.33Z" fill="white" fill-opacity="0.4"/>
</g>
</g>
</svg>
