<svg width="25" height="24" viewBox="0 0 25 24" fill="none" xmlns="http://www.w3.org/2000/svg">
<g id="vuesax/bold/category-2">
<g id="category-2">
<path id="Vector" d="M19.1699 2H17.2699C15.0899 2 13.9399 3.15 13.9399 5.33V7.23C13.9399 9.41 15.0899 10.56 17.2699 10.56H19.1699C21.3499 10.56 22.4999 9.41 22.4999 7.23V5.33C22.4999 3.15 21.3499 2 19.1699 2Z" fill="white" fill-opacity="0.4"/>
<path id="Vector_2" d="M7.74 13.4299H5.84C3.65 13.4299 2.5 14.5799 2.5 16.7599V18.6599C2.5 20.8499 3.65 21.9999 5.83 21.9999H7.73C9.91 21.9999 11.06 20.8499 11.06 18.6699V16.7699C11.07 14.5799 9.92 13.4299 7.74 13.4299Z" fill="white" fill-opacity="0.4"/>
<path id="Vector_3" d="M6.79 10.58C9.1593 10.58 11.08 8.6593 11.08 6.29C11.08 3.9207 9.1593 2 6.79 2C4.4207 2 2.5 3.9207 2.5 6.29C2.5 8.6593 4.4207 10.58 6.79 10.58Z" fill="white" fill-opacity="0.4"/>
<path id="Vector_4" d="M18.2099 21.9999C20.5792 21.9999 22.4999 20.0792 22.4999 17.7099C22.4999 15.3406 20.5792 13.4199 18.2099 13.4199C15.8406 13.4199 13.9199 15.3406 13.9199 17.7099C13.9199 20.0792 15.8406 21.9999 18.2099 21.9999Z" fill="white" fill-opacity="0.4"/>
</g>
</g>
</svg>
