<svg width="25" height="24" viewBox="0 0 25 24" fill="none" xmlns="http://www.w3.org/2000/svg">
<g id="vuesax/bold/stickynote">
<g id="stickynote">
<path id="Vector" d="M8.79004 6.29C8.37004 6.29 8.04004 5.95 8.04004 5.54V2.75C8.04004 2.34 8.37004 2 8.79004 2C9.21004 2 9.54004 2.34 9.54004 2.75V5.53C9.54004 5.95 9.21004 6.29 8.79004 6.29Z" fill="white" fill-opacity="0.4"/>
<path id="Vector_2" d="M16.21 6.29C15.79 6.29 15.46 5.95 15.46 5.54V2.75C15.46 2.33 15.8 2 16.21 2C16.63 2 16.96 2.34 16.96 2.75V5.53C16.96 5.95 16.63 6.29 16.21 6.29Z" fill="white" fill-opacity="0.4"/>
<path id="Vector_3" d="M21.9999 15.8199C21.9999 15.9699 21.9499 16.1199 21.8199 16.2499C20.3699 17.7099 17.7899 20.3099 16.3099 21.7999C16.1799 21.9399 16.0099 21.9999 15.8399 21.9999C15.5099 21.9999 15.1899 21.7399 15.1899 21.3599V17.8599C15.1899 16.3999 16.4299 15.1899 17.9499 15.1899C18.8999 15.1799 20.2199 15.1799 21.3499 15.1799C21.7399 15.1799 21.9999 15.4899 21.9999 15.8199Z" fill="white" fill-opacity="0.4"/>
<path id="Vector_4" opacity="0.5" d="M21.9999 15.8199C21.9999 15.9699 21.9499 16.1199 21.8199 16.2499C20.3699 17.7099 17.7899 20.3099 16.3099 21.7999C16.1799 21.9399 16.0099 21.9999 15.8399 21.9999C15.5099 21.9999 15.1899 21.7399 15.1899 21.3599V17.8599C15.1899 16.3999 16.4299 15.1899 17.9499 15.1899C18.8999 15.1799 20.2199 15.1799 21.3499 15.1799C21.7399 15.1799 21.9999 15.4899 21.9999 15.8199Z" fill="white" fill-opacity="0.4"/>
<path id="Vector_5" d="M20.07 4.5C19.41 4.01 18.46 4.48 18.46 5.31V5.41C18.46 6.58 17.62 7.66 16.45 7.78C15.1 7.92 13.96 6.86 13.96 5.54V4.5C13.96 3.95 13.51 3.5 12.96 3.5H12.04C11.49 3.5 11.04 3.95 11.04 4.5V5.41C11.04 6.29 10.57 7.11 9.84 7.51C9.8 7.54 9.76 7.56 9.72 7.58C9.71 7.58 9.71 7.59 9.7 7.59C9.63 7.62 9.56 7.65 9.48 7.68C9.46 7.69 9.44 7.69 9.42 7.7C9.3 7.74 9.17 7.77 9.03 7.78H9.02C8.87 7.8 8.71 7.8 8.56 7.78H8.55C8.41 7.77 8.28 7.74 8.16 7.7C8.06 7.67 7.96 7.63 7.86 7.58C7.08 7.23 6.54 6.45 6.54 5.54V5.31C6.54 4.54 5.72 4.08 5.07 4.41C5.06 4.42 5.05 4.42 5.04 4.43H5.03C4.96 4.48 4.9 4.53 4.83 4.58C4.72 4.67 4.61 4.76 4.51 4.86C4.44 4.93 4.37 5 4.31 5.07C4.23 5.15 4.16 5.23 4.09 5.32C4.04 5.38 3.98 5.44 3.94 5.51C3.89 5.57 3.85 5.64 3.81 5.7C3.8 5.71 3.79 5.72 3.78 5.74C3.69 5.87 3.61 6.02 3.54 6.16C3.52 6.18 3.51 6.19 3.51 6.21C3.45 6.33 3.39 6.45 3.35 6.58C3.32 6.63 3.31 6.67 3.29 6.72C3.27 6.76 3.26 6.81 3.24 6.85C3.21 6.95 3.18 7.06 3.15 7.17C3.11 7.31 3.08 7.46 3.06 7.61C3.04 7.72 3.03 7.83 3.02 7.95C3.01 8.09 3 8.23 3 8.37V17.13C3 19.82 5.18 22 7.87 22H12.69C13.24 22 13.69 21.55 13.69 21V17.86C13.69 15.56 15.6 13.69 17.95 13.69C18.48 13.68 19.77 13.68 21 13.68C21.55 13.68 22 13.23 22 12.68V8.37C22 6.78 21.24 5.39 20.07 4.5ZM11.63 15.91C11.54 16.21 11.26 16.42 10.93 16.42H7.29C7.24 16.42 7.2 16.42 7.16 16.4C6.8 16.35 6.54 16.04 6.54 15.67C6.54 15.25 6.87 14.91 7.29 14.91H10.93C11.34 14.91 11.68 15.25 11.68 15.67C11.68 15.75 11.67 15.84 11.63 15.91ZM14.41 12.2C14.32 12.5 14.04 12.71 13.71 12.71H7.29C7.24 12.71 7.2 12.71 7.16 12.69C6.8 12.64 6.54 12.33 6.54 11.96C6.54 11.54 6.87 11.2 7.29 11.2H13.71C14.13 11.2 14.46 11.54 14.46 11.96C14.46 12.04 14.45 12.13 14.41 12.2Z" fill="white" fill-opacity="0.4"/>
</g>
</g>
</svg>
